HIERARCHY
ROOT SpineBase
{
  OFFSET 0.000000 0.000000 0.000000
  CHANNELS 6 Xposition Yposition Zposition Zrotation Xrotation Yrotation
  JOINT SpineMid
  {
    OFFSET 0.000000 32.977149 0.000000
    CHANNELS 3 Zrotation Xrotation Yrotation
    JOINT SpineShoulder
    {
      OFFSET -0.045585 24.148562 -0.810377
      CHANNELS 3 Zrotation Xrotation Yrotation
      JOINT Neck
      {
        OFFSET -0.024070 7.879020 -0.617871
        CHANNELS 3 Zrotation Xrotation Yrotation
        JOINT Head
        {
          OFFSET -7.577749 10.704568 5.477318
          CHANNELS 3 Zrotation Xrotation Yrotation
          End Site
          {
            OFFSET 0 0 0
          }
        }
      }
      JOINT ShoulderLeft
      {
        OFFSET -14.314911 -3.287486 13.444748
        CHANNELS 3 Zrotation Xrotation Yrotation
        JOINT ElbowLeft
        {
          OFFSET 25.163820 -16.196246 4.901960
          CHANNELS 3 Zrotation Xrotation Yrotation
          JOINT WristLeft
          {
            OFFSET 0.334538 -22.443345 -21.580277
            CHANNELS 3 Zrotation Xrotation Yrotation
            JOINT HandLeft
            {
              OFFSET -7.627045 -14.038181 -5.804536
              CHANNELS 3 Zrotation Xrotation Yrotation
              JOINT HandTipLeft
              {
                OFFSET -1.133816 -5.143585 -1.427467
                CHANNELS 3 Zrotation Xrotation Yrotation
                End Site
                {
                  OFFSET 0 0 0
                }
              }
              JOINT ThumbLeft
              {
                OFFSET -3.812752 5.706677 -5.517554
                CHANNELS 3 Zrotation Xrotation Yrotation
                End Site
                {
                  OFFSET 0 0 0
                }
              }
            }
          }
        }
      }
      JOINT ShoulderRight
      {
        OFFSET 0.718081 -7.688584 -13.069097
        CHANNELS 3 Zrotation Xrotation Yrotation
        JOINT ElbowRight
        {
          OFFSET -2.762826 -28.606596 -5.565222
          CHANNELS 3 Zrotation Xrotation Yrotation
          JOINT WristRight
          {
            OFFSET -9.280626 -22.833275 -0.682500
            CHANNELS 3 Zrotation Xrotation Yrotation
            JOINT HandRight
            {
              OFFSET -2.118796 -7.078111 2.340421
              CHANNELS 3 Zrotation Xrotation Yrotation
              JOINT HandTipRight
              {
                OFFSET -3.929554 -5.695736 -1.464108
                CHANNELS 3 Zrotation Xrotation Yrotation
                End Site
                {
                  OFFSET 0 0 0
                }
              }
              JOINT ThumbRight
              {
                OFFSET 4.580021 -2.264071 3.593449
                CHANNELS 3 Zrotation Xrotation Yrotation
                End Site
                {
                  OFFSET 0 0 0
                }
              }
            }
          }
        }
      }
    }
  }
  JOINT HipLeft
  {
    OFFSET -3.136095 -0.635858 2.851436
    CHANNELS 3 Zrotation Xrotation Yrotation
    JOINT KneeLeft
    {
      OFFSET 5.729353 -41.032531 4.868804
      CHANNELS 3 Zrotation Xrotation Yrotation
      JOINT AnkleLeft
      {
        OFFSET 2.516682 -32.399115 8.401254
        CHANNELS 3 Zrotation Xrotation Yrotation
        JOINT FootLeft
        {
          OFFSET -9.703533 -3.973548 -8.403633
          CHANNELS 3 Zrotation Xrotation Yrotation
          End Site
          {
            OFFSET 0 0 0
          }
        }
      }
    }
  }
  JOINT HipRight
  {
    OFFSET 3.527102 1.594076 -10.205213
    CHANNELS 3 Zrotation Xrotation Yrotation
    JOINT KneeRight
    {
      OFFSET -8.843957 -40.489680 5.509211
      CHANNELS 3 Zrotation Xrotation Yrotation
      JOINT AnkleRight
      {
        OFFSET 1.422547 -38.935322 2.036730
        CHANNELS 3 Zrotation Xrotation Yrotation
        JOINT FootRight
        {
          OFFSET -9.593425 -3.864982 -8.356488
          CHANNELS 3 Zrotation Xrotation Yrotation
          End Site
          {
            OFFSET 0 0 0
          }
        }
      }
    }
  }
}
MOTION
Frames: 12
Frame Time: 0.033333
-12.719757 81.831479 296.890740 0.860041 -0.784264 63.485133 -0.305033 -0.230192 -63.448515 -0.352326 0.479855 0.015315 -0.576689 0.680770 -0.039738 0.000000 0.000000 0.000000 -0.576689 0.680770 -0.039738 -0.000000 0.000000 0.000000 0.697197 3.098125 -1.975028 -3.617879 -1.267120 2.212338 0.000000 0.000000 0.000000 0.000000 0.000000 0.000000 0.875760 -0.641120 -0.195982 -0.699012 2.436709 -0.330619 4.939768 6.031478 -0.016648 -4.176062 -9.597592 1.440420 0.000000 0.000000 0.000000 0.000000 0.000000 0.000000 0.826112 0.343631 -63.364512 -3.726990 2.512291 -0.596089 2.835389 -2.586292 0.593845 0.000000 0.000000 0.000000 1.249496 3.063000 -64.067644 1.340300 -1.687417 0.571025 -0.000000 0.000000 0.000000 0.000000 0.000000 0.000000
-12.661861 81.738155 296.864140 0.957142 -0.865310 63.227679 -0.214104 -0.084237 -63.189206 -0.381994 0.412198 0.013639 -0.553124 0.682839 -0.038012 0.000000 0.000000 0.000000 -0.553124 0.682839 -0.038012 -0.000000 0.000000 0.000000 0.924035 3.014983 -2.031419 -2.717876 -2.243199 2.223873 0.000000 0.000000 0.000000 0.000000 0.000000 0.000000 0.933741 -0.669271 -0.197728 -0.741282 2.502822 -0.340852 5.183483 6.816332 -0.225899 -5.819239 -9.839754 1.290864 0.000000 0.000000 0.000000 0.000000 0.000000 0.000000 0.059124 -1.069747 -63.174606 -6.039432 5.578985 -0.517759 4.150209 -4.231478 0.890140 0.000000 0.000000 0.000000 1.215124 3.272280 -63.820882 1.434616 -1.678487 0.583304 -0.000000 0.000000 0.000000 0.000000 0.000000 0.000000
-12.398551 81.612533 297.049801 1.277484 -1.205090 62.653106 -0.025813 0.160051 -62.603074 -0.543681 0.388509 0.011083 -0.578820 0.766809 -0.039197 0.000000 0.000000 0.000000 -0.578820 0.766809 -0.039197 -0.000000 0.000000 0.000000 1.100327 3.215608 -2.218931 -2.747931 -2.756555 2.426959 0.000000 0.000000 0.000000 0.000000 0.000000 0.000000 1.033726 -0.643193 -0.219476 -1.013007 2.568644 -0.314479 6.073734 7.329105 -0.198744 -9.039933 -5.985137 -1.554157 0.000000 0.000000 0.000000 0.000000 0.000000 0.000000 -0.375715 -1.320252 -62.673274 -7.180353 7.575182 -0.363025 4.953560 -5.372364 1.083365 0.000000 0.000000 0.000000 1.475278 4.223675 -63.388424 1.822896 -2.021770 0.722638 -0.000000 0.000000 0.000000 0.000000 0.000000 0.000000
-11.695248 81.462108 297.666785 2.114561 -2.077173 61.601699 0.296451 0.755684 -61.516673 -0.851954 0.458907 0.012073 -0.737058 0.999620 -0.048351 0.000000 0.000000 0.000000 -0.737058 0.999620 -0.048351 3.235533 -0.628039 -3.117913 -0.788215 4.797906 -0.362717 -0.072095 -10.135312 4.363303 0.000000 0.000000 0.000000 0.000000 0.000000 0.000000 1.067282 -0.471786 -0.266890 -1.428628 2.612214 -0.258942 6.508824 8.276084 -0.501446 -9.106227 -7.467691 -1.117660 0.000000 0.000000 0.000000 0.000000 0.000000 0.000000 0.345281 1.716156 -61.607117 -4.837556 5.418049 -0.437526 4.750798 -5.019278 1.100179 0.000000 0.000000 0.000000 2.218809 6.759526 -62.751475 2.839170 -3.030960 1.125716 0.637728 -0.624945 0.180466 0.000000 0.000000 0.000000
-10.347801 81.306257 298.562592 3.726676 -3.226609 60.741137 0.439973 1.731206 -60.568646 -1.024148 0.677342 0.037869 -1.402397 1.323102 -0.089830 0.000000 0.000000 0.000000 -1.402397 1.323102 -0.089830 2.528736 -0.060867 -2.431528 0.019676 4.184313 -1.018700 -1.084847 -10.535497 4.581283 0.000000 0.000000 0.000000 0.000000 0.000000 0.000000 0.773910 -0.185105 -0.391341 -2.093769 2.641947 -0.164670 7.134504 9.227747 -0.776918 -6.660740 -15.976182 3.977244 0.000000 0.000000 0.000000 0.000000 0.000000 0.000000 -0.384464 4.799242 -60.807946 -3.958855 7.152722 -0.154062 5.710315 -6.853998 1.243044 0.000000 0.000000 0.000000 2.803836 10.921873 -62.519733 4.576711 -4.411140 1.769429 1.066409 -0.988038 0.162747 0.000000 0.000000 0.000000
-9.177026 81.139729 299.239246 4.830395 -4.019424 59.991882 0.386532 1.949168 -59.725147 -1.275207 0.815051 0.064166 -2.050632 1.902751 -0.121122 0.000000 0.000000 0.000000 -2.050632 1.902751 -0.121122 -1.563369 1.223927 1.522865 3.469948 1.730749 -3.915894 -6.257025 -0.680100 2.862261 0.000000 0.000000 0.000000 0.000000 0.000000 0.000000 0.490599 0.381341 -0.522278 -2.861710 2.490197 0.000204 8.109108 10.029583 -0.973269 -5.566525 -20.608952 6.886480 0.000000 0.000000 0.000000 0.000000 0.000000 0.000000 -0.129960 9.794320 -60.044797 1.100850 2.878103 0.013959 4.019211 -4.855772 0.617877 0.000000 0.000000 0.000000 3.048130 14.384073 -62.325969 6.347470 -5.547941 2.398060 1.418298 -1.247371 0.047633 0.000000 0.000000 0.000000
-9.105921 81.303810 299.543282 4.487876 -4.463522 58.475403 0.710993 1.351480 -58.211677 -1.560418 0.372104 0.076980 -2.135006 2.789204 -0.107151 0.000000 0.000000 0.000000 -2.135006 2.789204 -0.107151 -9.867584 1.004221 9.523167 8.479780 0.729394 -10.240975 -12.124578 9.712326 2.672367 0.000000 0.000000 0.000000 0.000000 0.000000 0.000000 0.766087 1.058525 -0.605499 -3.518444 2.619086 0.110525 8.654129 11.189326 -1.388788 -1.223696 -28.854067 13.476317 0.000000 0.000000 0.000000 0.000000 0.000000 0.000000 -0.193716 11.281308 -58.567983 4.082725 1.909796 0.462076 2.610271 -4.435464 0.078276 0.000000 0.000000 0.000000 3.954676 15.295898 -61.225554 6.827556 -6.566448 2.772014 1.501673 -1.271994 -0.077257 0.000000 0.000000 0.000000
-9.980039 81.650994 299.455789 2.973648 -4.664432 56.693135 0.860430 0.458640 -56.508689 -1.783065 -0.034983 0.050708 -1.270491 3.734690 -0.046921 0.000000 0.000000 0.000000 -1.270491 3.734690 -0.046921 -22.878871 -3.390700 21.986071 16.145524 0.372223 -20.275622 -15.288213 24.021005 3.280100 0.000000 0.000000 0.000000 0.000000 0.000000 0.000000 1.635343 1.822201 -0.571464 -3.841228 2.542975 0.225443 9.054630 11.337794 -1.491814 0.435255 -32.827389 17.367387 0.000000 0.000000 0.000000 0.000000 0.000000 0.000000 0.043346 10.392443 -56.895775 5.935531 2.113133 0.894635 1.072207 -4.214386 -0.625917 0.000000 0.000000 0.000000 5.229071 14.111926 -59.597506 7.651502 -7.385767 3.046792 0.073817 -0.715909 -0.414068 0.000000 0.000000 0.000000
-11.609337 82.242432 298.949265 0.498737 -4.582970 54.492447 0.900092 -0.583771 -54.467263 -1.842179 -0.380952 -0.017134 0.344683 4.570836 0.027330 0.000000 0.000000 0.000000 0.344683 4.570836 0.027330 -37.138251 -14.086427 35.405104 23.811287 3.043876 -31.214411 -12.246221 38.483336 4.270277 0.000000 0.000000 0.000000 0.000000 0.000000 0.000000 2.776422 2.542634 -0.402037 -3.583996 2.245516 0.301146 8.940235 11.207988 -1.622672 1.457399 -33.243717 18.357236 0.000000 0.000000 0.000000 0.000000 0.000000 0.000000 0.444981 7.349235 -54.907544 6.661376 3.692892 1.243695 -0.459111 -4.297514 -1.422568 0.000000 0.000000 0.000000 6.933173 11.169400 -57.269951 6.978248 -7.887022 2.935947 -0.973723 0.078720 -0.806373 0.000000 0.000000 0.000000
-13.770906 82.793387 297.850542 -2.727998 -4.050892 52.629281 0.930171 -1.756267 -52.822341 -1.614773 -0.652705 -0.119325 2.365977 5.033032 0.097281 0.000000 0.000000 0.000000 2.365977 5.033032 0.097281 -47.443659 -26.481968 44.724041 20.046514 9.366268 -32.975639 9.078307 55.516870 -1.580422 0.000000 0.000000 0.000000 0.000000 0.000000 0.000000 4.149998 2.913977 -0.168377 -3.282384 1.943550 0.339806 8.560861 9.882600 -1.383614 2.335550 -33.275458 19.604032 0.000000 0.000000 0.000000 0.000000 0.000000 0.000000 1.029352 2.250552 -53.377709 6.144731 6.507686 1.457542 -1.812722 -4.575775 -2.172061 0.000000 0.000000 0.000000 8.573382 6.476375 -54.790781 5.781116 -7.538913 2.461391 -2.306926 1.071327 -1.180510 0.000000 0.000000 0.000000
-15.972774 83.307338 296.555078 -6.124957 -3.590831 51.108307 0.689689 -2.317193 -51.543998 -1.356413 -0.858011 -0.272954 6.014663 5.382679 -0.314118 0.000000 0.000000 0.000000 5.208405 5.394862 0.180300 -53.228129 -35.820716 49.602900 21.742725 27.782628 -31.185834 27.611070 54.334444 -2.576370 0.000000 0.000000 0.000000 0.000000 0.000000 0.000000 5.866828 3.300832 0.206482 -2.453988 1.526965 0.276998 7.120125 8.583650 -1.430265 3.653437 -30.827533 18.856712 0.000000 0.000000 0.000000 0.000000 0.000000 0.000000 1.988591 -3.587689 -52.245535 4.102596 10.035124 1.515422 -4.722709 -2.286617 -3.729097 0.000000 0.000000 0.000000 10.378284 1.609666 -52.452052 4.746021 -6.811417 1.917307 -3.800239 2.087580 -1.434844 0.000000 0.000000 0.000000
-17.705423 83.591511 295.371112 -9.198723 -3.492697 50.001899 0.481160 -2.334397 -50.674141 -1.179544 -0.820793 -0.428434 9.310009 5.838614 -0.173927 0.000000 0.000000 0.000000 8.223940 5.526293 0.266275 -55.808445 -41.591195 51.504023 14.005672 27.632998 -25.555048 50.283572 65.479214 -15.042865 0.000000 0.000000 0.000000 0.000000 0.000000 0.000000 7.439063 3.640951 0.665695 -1.144571 1.019599 0.107510 4.647834 7.520896 -1.784240 3.521729 -26.365963 16.186295 0.000000 0.000000 0.000000 0.000000 0.000000 0.000000 3.130468 -9.078128 -51.561626 1.464677 14.029724 1.672633 -4.257354 -3.912254 -3.003282 0.000000 0.000000 0.000000 12.047095 -1.944263 -50.697752 4.693827 -6.415254 1.589901 -5.234201 3.212729 -1.524832 0.000000 0.000000 0.000000
